<svg id="svg" version="1.1" xmlns="http://www.w3.org/2000/svg" xmlns:xlink="http://www.w3.org/1999/xlink" width="400" height="400" viewBox="0, 0, 400,400"><g id="svgg"><path id="path0" d="M105.786 82.898 C 105.681 83.174,105.641 136.050,105.698 200.400 L 105.800 317.400 107.800 317.600 C 108.900 317.710,123.345 317.746,139.900 317.681 L 170.000 317.562 170.000 298.628 L 170.000 279.693 169.100 279.452 C 168.605 279.319,162.971 279.208,156.580 279.205 C 148.082 279.201,144.831 279.071,144.480 278.720 C 143.782 278.022,143.782 121.978,144.480 121.280 C 144.833 120.927,148.276 120.800,157.484 120.800 L 170.008 120.800 169.904 101.700 L 169.800 82.600 137.888 82.498 C 112.570 82.416,105.937 82.499,105.786 82.898 M230.583 82.900 C 230.478 83.175,230.438 91.770,230.496 102.000 L 230.600 120.600 243.180 120.706 C 252.633 120.785,255.838 120.934,256.074 121.306 C 256.438 121.879,256.521 277.620,256.157 278.567 C 255.943 279.125,254.477 279.200,243.790 279.200 C 237.121 279.200,231.381 279.309,231.033 279.443 C 230.468 279.659,230.400 281.725,230.400 298.643 L 230.400 317.600 262.600 317.600 L 294.800 317.600 294.799 312.700 C 294.798 310.005,294.803 257.256,294.810 195.480 C 294.817 133.704,294.717 82.989,294.588 82.780 C 294.202 82.157,230.823 82.275,230.583 82.900 " stroke="none" fill="#f8fbfb" fill-rule="evenodd"></path><path id="path1" d="M0.000 200.000 L 0.000 400.000 200.000 400.000 L 400.000 400.000 400.000 200.000 L 400.000 0.000 200.000 0.000 L 0.000 0.000 0.000 200.000 M104.512 77.000 C 104.402 77.504,102.400 77.781,102.400 77.293 C 102.400 76.675,102.935 76.362,103.784 76.483 C 104.233 76.547,104.561 76.780,104.512 77.000 M169.422 77.774 C 169.563 78.530,169.561 79.340,169.416 79.574 C 168.995 80.255,168.354 80.066,168.482 79.300 C 168.561 78.833,168.301 78.558,167.700 78.472 C 166.676 78.327,166.643 78.240,167.214 77.174 C 167.911 75.871,169.127 76.202,169.422 77.774 M228.616 76.825 C 228.760 77.059,228.591 77.568,228.239 77.957 C 227.479 78.797,227.421 79.661,228.080 80.320 C 228.453 80.693,228.453 80.800,228.080 80.800 C 227.386 80.800,226.000 79.310,226.000 78.564 C 226.000 77.404,228.107 76.003,228.616 76.825 M296.395 76.788 C 296.900 77.108,296.855 77.290,296.095 77.998 C 295.603 78.456,295.200 79.004,295.200 79.216 C 295.200 79.427,294.916 79.600,294.568 79.600 C 294.065 79.600,293.993 79.336,294.215 78.300 C 294.652 76.263,295.087 75.961,296.395 76.788 M300.000 77.200 C 300.000 77.420,299.730 77.600,299.400 77.600 C 299.070 77.600,298.800 77.420,298.800 77.200 C 298.800 76.980,299.070 76.800,299.400 76.800 C 299.730 76.800,300.000 76.980,300.000 77.200 M114.800 78.400 C 114.800 79.060,114.620 79.600,114.400 79.600 C 114.180 79.600,114.000 79.060,114.000 78.400 C 114.000 77.740,114.180 77.200,114.400 77.200 C 114.620 77.200,114.800 77.740,114.800 78.400 M303.600 78.800 C 303.600 79.680,303.420 80.400,303.200 80.400 C 302.980 80.400,302.800 79.680,302.800 78.800 C 302.800 77.920,302.980 77.200,303.200 77.200 C 303.420 77.200,303.600 77.920,303.600 78.800 M176.000 79.206 C 176.000 79.927,175.073 80.540,174.639 80.106 C 174.317 79.784,174.334 78.199,174.663 77.870 C 175.064 77.470,176.000 78.405,176.000 79.206 M109.626 78.414 C 110.052 78.642,110.400 79.078,110.400 79.382 C 110.400 79.987,108.271 80.615,107.610 80.206 C 107.384 80.067,107.200 80.128,107.200 80.342 C 107.200 80.962,110.903 81.012,140.800 80.800 C 156.481 80.689,169.355 80.755,169.800 80.949 C 171.352 81.626,172.472 83.282,172.124 84.387 C 171.728 85.648,171.695 114.409,172.086 118.114 L 172.373 120.828 171.086 121.613 C 169.886 122.344,169.017 122.397,158.149 122.399 C 148.742 122.400,146.410 122.506,146.041 122.951 C 145.668 123.401,145.409 255.996,145.748 273.267 C 145.807 276.294,146.082 276.811,147.129 275.864 C 148.615 274.520,151.599 275.308,150.784 276.830 C 150.053 278.195,165.950 278.562,166.809 277.200 C 167.363 276.322,167.285 276.000,166.520 276.000 C 166.014 276.000,165.956 275.884,166.293 275.547 C 166.839 275.001,168.050 275.383,167.904 276.056 C 167.847 276.319,168.204 276.745,168.697 277.003 C 169.191 277.260,169.925 277.770,170.329 278.136 C 170.733 278.501,171.209 278.800,171.387 278.800 C 171.566 278.800,171.951 279.115,172.243 279.500 C 172.568 279.928,172.780 280.005,172.787 279.700 C 172.805 279.016,174.192 279.068,174.779 279.774 C 175.767 280.965,174.008 282.648,172.917 281.557 C 171.721 280.361,171.542 282.756,171.638 298.727 C 171.690 307.457,171.872 314.960,172.041 315.400 C 172.301 316.075,172.353 316.090,172.375 315.500 C 172.408 314.580,174.327 314.545,174.678 315.458 C 174.993 316.279,173.839 317.188,172.820 316.921 C 172.328 316.792,171.994 316.989,171.831 317.503 C 171.298 319.180,170.899 319.200,138.537 319.177 C 121.473 319.165,107.411 319.256,107.289 319.378 C 106.953 319.714,105.600 319.644,105.600 319.291 C 105.600 319.121,104.968 318.642,104.197 318.226 C 102.935 317.547,102.853 317.404,103.385 316.817 C 103.885 316.264,104.123 93.441,103.630 86.800 C 103.452 84.410,103.917 82.630,104.951 81.740 C 105.573 81.206,106.000 80.423,106.000 79.819 C 106.000 78.790,107.173 78.294,107.227 79.300 C 107.242 79.575,107.449 79.395,107.688 78.900 C 108.173 77.894,108.501 77.812,109.626 78.414 M179.200 79.024 C 179.200 79.684,178.568 79.795,178.200 79.200 C 177.874 78.672,178.352 77.923,178.828 78.217 C 179.032 78.344,179.200 78.707,179.200 79.024 M222.957 78.331 C 223.246 78.798,222.778 80.400,222.353 80.400 C 222.159 80.400,222.000 79.860,222.000 79.200 C 222.000 78.067,222.508 77.605,222.957 78.331 M103.600 78.800 C 103.600 79.020,103.330 79.200,103.000 79.200 C 102.670 79.200,102.400 79.020,102.400 78.800 C 102.400 78.580,102.670 78.400,103.000 78.400 C 103.330 78.400,103.600 78.580,103.600 78.800 M172.800 78.800 C 172.800 79.020,172.608 79.200,172.373 79.200 C 172.120 79.200,172.056 79.545,172.215 80.047 C 172.401 80.633,172.330 80.843,171.984 80.728 C 171.099 80.433,171.137 78.400,172.027 78.400 C 172.452 78.400,172.800 78.580,172.800 78.800 M300.042 80.518 C 299.528 81.032,299.007 80.635,299.388 80.020 C 299.535 79.782,299.839 79.700,300.062 79.839 C 300.336 80.007,300.329 80.231,300.042 80.518 M104.000 80.333 C 104.000 80.854,103.524 81.201,103.138 80.961 C 102.724 80.706,103.081 80.000,103.624 80.000 C 103.831 80.000,104.000 80.150,104.000 80.333 M295.842 80.700 C 295.961 81.085,296.217 81.699,296.411 82.065 C 296.886 82.962,296.911 315.224,296.436 315.964 C 295.912 316.780,296.354 317.600,297.318 317.600 C 298.183 317.600,300.792 319.175,300.797 319.700 C 300.802 320.177,299.808 320.048,299.255 319.500 C 298.851 319.100,298.672 319.139,298.355 319.700 C 297.935 320.445,296.601 320.649,296.217 320.028 C 296.091 319.823,296.170 319.542,296.393 319.404 C 296.916 319.081,296.921 318.400,296.400 318.400 C 296.180 318.400,296.000 318.651,296.000 318.957 C 296.000 319.635,294.918 320.115,294.589 319.583 C 294.256 319.044,230.531 319.064,230.198 319.603 C 229.806 320.238,228.874 319.066,228.896 317.967 C 228.906 317.435,228.809 316.292,228.679 315.427 C 227.868 310.031,228.344 278.071,229.228 278.617 C 229.432 278.744,229.600 278.659,229.600 278.429 C 229.600 278.150,233.803 277.976,242.300 277.906 L 255.000 277.800 255.000 200.200 L 255.000 122.600 242.800 122.503 C 230.275 122.403,228.800 122.223,228.800 120.799 C 228.800 120.433,228.684 120.018,228.543 119.876 C 228.198 119.531,228.253 84.382,228.601 82.797 C 229.042 80.787,228.826 80.800,262.602 80.800 C 283.338 80.800,294.439 80.661,294.600 80.400 C 294.984 79.778,295.603 79.928,295.842 80.700 M176.017 82.831 C 176.261 83.288,176.356 83.939,176.226 84.276 C 175.880 85.178,174.800 84.174,174.800 82.951 C 174.800 81.778,175.421 81.717,176.017 82.831 M178.515 83.645 C 177.840 84.320,177.037 83.678,177.644 82.947 C 177.978 82.544,178.254 82.494,178.543 82.783 C 178.832 83.072,178.824 83.336,178.515 83.645 M301.530 82.748 C 302.133 83.130,301.775 88.800,301.148 88.800 C 300.957 88.800,300.800 88.620,300.800 88.400 C 300.800 88.180,300.620 88.000,300.400 88.000 C 300.180 88.000,300.000 88.371,300.000 88.824 C 300.000 89.277,299.818 89.535,299.595 89.397 C 298.733 88.864,299.307 83.582,300.197 83.863 C 300.866 84.075,300.915 84.020,300.500 83.521 C 299.754 82.621,300.476 82.080,301.530 82.748 M300.000 86.000 C 300.000 86.660,300.180 87.200,300.400 87.200 C 300.620 87.200,300.800 86.660,300.800 86.000 C 300.800 85.340,300.620 84.800,300.400 84.800 C 300.180 84.800,300.000 85.340,300.000 86.000 M177.574 86.776 C 178.321 87.248,177.463 88.400,176.365 88.400 C 175.599 88.400,174.639 87.094,175.081 86.653 C 175.450 86.283,176.910 86.355,177.574 86.776 M103.200 88.824 C 103.200 89.251,103.020 89.600,102.800 89.600 C 102.580 89.600,102.400 89.139,102.400 88.576 C 102.400 87.996,102.573 87.660,102.800 87.800 C 103.020 87.936,103.200 88.397,103.200 88.824 M221.226 115.214 C 221.882 115.565,222.000 116.070,222.000 118.538 C 222.000 123.746,220.177 124.210,219.746 119.111 C 219.402 115.050,219.659 114.375,221.226 115.214 M178.000 116.026 C 178.000 117.999,176.316 119.252,175.884 117.600 C 175.522 116.214,176.013 115.200,177.047 115.200 C 177.743 115.200,178.000 115.422,178.000 116.026 M227.400 115.600 C 227.264 115.820,226.803 116.000,226.376 116.000 C 225.949 116.000,225.600 115.820,225.600 115.600 C 225.600 115.380,226.061 115.200,226.624 115.200 C 227.204 115.200,227.540 115.373,227.400 115.600 M227.527 117.897 C 227.360 119.337,226.000 119.693,226.000 118.296 C 226.000 117.198,226.291 116.800,227.093 116.800 C 227.468 116.800,227.611 117.163,227.527 117.897 M177.525 120.905 C 177.617 121.385,177.402 121.600,176.829 121.600 C 176.257 121.600,176.000 121.343,176.000 120.771 C 176.000 119.746,177.324 119.862,177.525 120.905 M153.680 123.280 C 153.307 123.653,153.093 123.653,152.720 123.280 C 152.347 122.907,152.453 122.800,153.200 122.800 C 153.947 122.800,154.053 122.907,153.680 123.280 M167.722 124.000 C 167.972 124.660,168.406 125.200,168.688 125.200 C 168.969 125.200,169.200 125.380,169.200 125.600 C 169.200 126.363,167.957 125.994,166.981 124.942 C 165.952 123.831,165.828 123.506,166.267 123.067 C 166.807 122.526,167.281 122.830,167.722 124.000 M179.523 124.086 C 179.691 124.973,178.137 125.384,176.692 124.835 C 175.946 124.551,175.690 124.231,175.858 123.792 C 176.209 122.879,179.342 123.130,179.523 124.086 M150.400 125.303 C 150.400 126.031,149.544 127.213,149.180 126.988 C 148.736 126.713,148.665 124.268,149.089 123.844 C 149.386 123.548,150.400 124.676,150.400 125.303 M153.534 125.976 C 153.624 126.596,153.496 126.833,153.134 126.713 C 152.840 126.616,152.540 126.126,152.466 125.624 C 152.376 125.004,152.504 124.767,152.866 124.887 C 153.160 124.984,153.460 125.474,153.534 125.976 M170.314 268.738 C 171.080 269.224,170.447 270.400,169.419 270.400 C 168.142 270.400,166.834 268.949,167.870 268.682 C 169.055 268.375,169.767 268.392,170.314 268.738 M149.237 270.420 C 150.387 271.035,149.783 271.600,147.976 271.600 C 146.287 271.600,146.275 271.591,146.643 270.633 C 146.922 269.905,148.096 269.809,149.237 270.420 M176.967 270.243 C 177.850 270.582,177.756 271.488,176.785 272.008 C 175.114 272.903,173.481 271.375,175.100 270.432 C 175.935 269.946,176.140 269.925,176.967 270.243 M153.600 271.200 C 153.600 272.132,152.210 272.324,151.870 271.439 C 151.601 270.736,151.923 270.400,152.867 270.400 C 153.333 270.400,153.600 270.691,153.600 271.200 M170.996 272.547 C 171.717 273.075,171.711 273.113,170.829 273.584 C 169.770 274.151,168.951 273.627,169.334 272.627 C 169.630 271.857,170.025 271.838,170.996 272.547 M219.200 275.520 C 219.200 277.291,218.707 278.400,217.920 278.400 C 217.744 278.400,217.600 277.320,217.600 276.000 C 217.600 273.867,217.689 273.600,218.400 273.600 C 219.089 273.600,219.200 273.867,219.200 275.520 M178.567 275.043 C 179.285 275.318,179.409 276.224,178.782 276.611 C 178.260 276.933,177.200 276.089,177.200 275.351 C 177.200 274.752,177.584 274.665,178.567 275.043 M227.600 275.624 C 227.600 275.831,227.330 276.000,227.000 276.000 C 226.381 276.000,226.205 275.528,226.656 275.078 C 226.975 274.758,227.600 275.119,227.600 275.624 M226.554 277.786 C 227.262 278.867,227.439 281.600,226.800 281.600 C 226.580 281.600,226.400 281.060,226.400 280.400 C 226.400 279.740,226.220 279.200,226.000 279.200 C 225.780 279.200,225.600 279.830,225.600 280.600 C 225.600 282.223,225.482 282.282,224.400 281.200 C 223.443 280.243,223.405 279.860,224.200 279.200 C 224.530 278.926,224.800 278.274,224.800 277.751 C 224.800 276.508,225.729 276.527,226.554 277.786 M179.200 279.200 C 179.200 279.733,178.933 280.000,178.400 280.000 C 177.867 280.000,177.600 279.733,177.600 279.200 C 177.600 278.667,177.867 278.400,178.400 278.400 C 178.933 278.400,179.200 278.667,179.200 279.200 M224.400 308.000 C 224.400 308.985,223.662 309.427,223.354 308.625 C 223.039 307.804,223.483 306.681,223.997 306.998 C 224.219 307.135,224.400 307.586,224.400 308.000 M306.880 308.080 C 306.507 308.453,306.290 308.450,305.903 308.063 C 305.508 307.668,305.527 307.492,306.000 307.200 C 306.364 306.975,306.741 306.981,306.977 307.217 C 307.221 307.461,307.186 307.774,306.880 308.080 M300.205 310.100 C 300.355 311.104,300.262 312.291,299.977 313.000 L 299.496 314.200 299.136 312.900 C 298.886 311.994,298.538 311.600,297.989 311.600 C 296.859 311.600,297.011 310.452,298.200 310.000 C 298.750 309.791,299.200 309.345,299.200 309.010 C 299.200 307.674,299.967 308.505,300.205 310.100 M174.720 309.280 C 175.488 310.048,175.283 310.400,174.067 310.400 C 172.735 310.400,172.375 310.131,172.670 309.361 C 172.934 308.674,174.069 308.629,174.720 309.280 M103.187 311.815 C 102.692 312.413,102.615 312.394,102.321 311.598 C 101.875 310.393,102.342 309.771,103.113 310.542 C 103.638 311.066,103.649 311.259,103.187 311.815 M179.200 312.853 C 179.200 314.166,179.072 314.434,178.500 314.326 C 177.654 314.165,177.332 312.205,178.016 311.380 C 178.742 310.506,179.200 311.077,179.200 312.853 M304.400 316.000 C 304.400 316.985,303.662 317.427,303.354 316.625 C 303.039 315.804,303.483 314.681,303.997 314.998 C 304.219 315.135,304.400 315.586,304.400 316.000 M224.480 316.480 C 224.107 316.853,224.000 316.747,224.000 316.000 C 224.000 315.253,224.107 315.147,224.480 315.520 C 224.853 315.893,224.853 316.107,224.480 316.480 M103.100 316.633 C 102.719 317.015,101.955 316.397,102.239 315.938 C 102.407 315.664,102.631 315.671,102.918 315.958 C 103.154 316.194,103.236 316.498,103.100 316.633 M228.000 317.176 C 228.000 317.603,227.820 318.064,227.600 318.200 C 227.373 318.340,227.200 318.004,227.200 317.424 C 227.200 316.861,227.380 316.400,227.600 316.400 C 227.820 316.400,228.000 316.749,228.000 317.176 M172.794 318.500 C 172.789 319.228,172.714 319.285,172.400 318.800 C 171.899 318.024,171.899 317.600,172.400 317.600 C 172.620 317.600,172.797 318.005,172.794 318.500 M179.528 319.296 C 179.381 320.327,178.233 320.692,177.376 319.980 C 176.587 319.325,177.349 318.400,178.677 318.400 C 179.462 318.400,179.630 318.577,179.528 319.296 M225.600 319.000 C 225.600 319.330,225.439 319.600,225.243 319.600 C 225.046 319.600,224.782 319.330,224.655 319.000 C 224.515 318.635,224.655 318.400,225.013 318.400 C 225.336 318.400,225.600 318.670,225.600 319.000 M108.860 319.800 C 108.860 320.009,108.666 320.245,108.430 320.323 C 108.194 320.402,108.000 320.167,108.000 319.800 C 108.000 319.433,108.194 319.198,108.430 319.277 C 108.666 319.356,108.860 319.591,108.860 319.800 " stroke="none" fill="#04abfb" fill-rule="evenodd"></path><path id="path2" d="M104.999 82.498 C 104.879 82.994,104.831 136.230,104.891 200.800 L 105.000 318.200 137.800 318.200 L 170.600 318.200 170.704 298.846 C 170.779 284.887,170.681 279.339,170.355 278.946 C 169.990 278.506,167.464 278.400,157.351 278.400 L 144.800 278.400 144.800 200.000 L 144.800 121.600 157.610 121.600 L 170.420 121.600 170.710 120.700 C 170.869 120.205,170.910 111.250,170.800 100.800 L 170.600 81.800 137.908 81.698 L 105.216 81.595 104.999 82.498 M229.784 82.098 C 229.678 82.374,229.639 91.330,229.696 102.000 L 229.800 121.400 242.900 121.505 L 256.000 121.611 256.000 200.005 L 256.000 278.400 243.249 278.400 C 232.967 278.400,230.410 278.506,230.045 278.946 C 229.719 279.339,229.621 284.887,229.696 298.846 L 229.800 318.200 262.600 318.200 L 295.400 318.200 295.400 200.000 L 295.400 81.800 262.688 81.698 C 236.731 81.616,229.937 81.699,229.784 82.098 M169.904 101.700 L 170.008 120.800 157.484 120.800 C 148.276 120.800,144.833 120.927,144.480 121.280 C 143.782 121.978,143.782 278.022,144.480 278.720 C 144.831 279.071,148.082 279.201,156.580 279.205 C 162.971 279.208,168.605 279.319,169.100 279.452 L 170.000 279.693 170.000 298.628 L 170.000 317.562 139.900 317.681 C 123.345 317.746,108.900 317.710,107.800 317.600 L 105.800 317.400 105.698 200.400 C 105.641 136.050,105.681 83.174,105.786 82.898 C 105.937 82.499,112.570 82.416,137.888 82.498 L 169.800 82.600 169.904 101.700 M294.588 82.780 C 294.717 82.989,294.817 133.704,294.810 195.480 C 294.803 257.256,294.798 310.005,294.799 312.700 L 294.800 317.600 262.600 317.600 L 230.400 317.600 230.400 298.643 C 230.400 281.725,230.468 279.659,231.033 279.443 C 231.381 279.309,237.121 279.200,243.790 279.200 C 254.477 279.200,255.943 279.125,256.157 278.567 C 256.521 277.620,256.438 121.879,256.074 121.306 C 255.838 120.934,252.633 120.785,243.180 120.706 L 230.600 120.600 230.496 102.000 C 230.438 91.770,230.478 83.175,230.583 82.900 C 230.823 82.275,294.202 82.157,294.588 82.780 " stroke="none" fill="#96e4fc" fill-rule="evenodd"></path><path id="path3" d="M102.684 76.650 C 102.528 76.806,102.400 77.095,102.400 77.293 C 102.400 77.781,104.402 77.504,104.512 77.000 C 104.616 76.529,103.096 76.238,102.684 76.650 M167.214 77.174 C 166.643 78.240,166.676 78.327,167.700 78.472 C 168.301 78.558,168.561 78.833,168.482 79.300 C 168.354 80.066,168.995 80.255,169.416 79.574 C 169.561 79.340,169.563 78.530,169.422 77.774 C 169.127 76.202,167.911 75.871,167.214 77.174 M226.900 77.177 C 225.540 78.312,226.351 80.800,228.080 80.800 C 228.453 80.800,228.453 80.693,228.080 80.320 C 227.421 79.661,227.479 78.797,228.239 77.957 C 229.452 76.616,228.345 75.972,226.900 77.177 M294.671 76.700 C 294.041 77.769,293.977 79.600,294.568 79.600 C 294.916 79.600,295.200 79.427,295.200 79.216 C 295.200 79.004,295.603 78.456,296.095 77.998 C 296.855 77.290,296.900 77.108,296.395 76.788 C 295.674 76.332,294.910 76.293,294.671 76.700 M298.800 77.200 C 298.800 77.420,299.070 77.600,299.400 77.600 C 299.730 77.600,300.000 77.420,300.000 77.200 C 300.000 76.980,299.730 76.800,299.400 76.800 C 299.070 76.800,298.800 76.980,298.800 77.200 M114.000 78.400 C 114.000 79.060,114.180 79.600,114.400 79.600 C 114.620 79.600,114.800 79.060,114.800 78.400 C 114.800 77.740,114.620 77.200,114.400 77.200 C 114.180 77.200,114.000 77.740,114.000 78.400 M302.800 78.800 C 302.800 79.680,302.980 80.400,303.200 80.400 C 303.420 80.400,303.600 79.680,303.600 78.800 C 303.600 77.920,303.420 77.200,303.200 77.200 C 302.980 77.200,302.800 77.920,302.800 78.800 M174.663 77.870 C 174.334 78.199,174.317 79.784,174.639 80.106 C 175.073 80.540,176.000 79.927,176.000 79.206 C 176.000 78.405,175.064 77.470,174.663 77.870 M107.679 78.986 C 107.127 80.198,107.579 80.556,109.210 80.198 C 110.566 79.900,110.770 79.026,109.626 78.414 C 108.486 77.804,108.176 77.895,107.679 78.986 M178.204 78.393 C 177.909 78.871,178.283 79.600,178.824 79.600 C 179.310 79.600,179.313 78.517,178.828 78.217 C 178.623 78.091,178.342 78.170,178.204 78.393 M222.000 79.200 C 222.000 79.860,222.159 80.400,222.353 80.400 C 222.778 80.400,223.246 78.798,222.957 78.331 C 222.508 77.605,222.000 78.067,222.000 79.200 M102.400 78.800 C 102.400 79.020,102.670 79.200,103.000 79.200 C 103.330 79.200,103.600 79.020,103.600 78.800 C 103.600 78.580,103.330 78.400,103.000 78.400 C 102.670 78.400,102.400 78.580,102.400 78.800 M171.370 79.481 C 171.433 80.075,171.710 80.637,171.984 80.728 C 172.330 80.843,172.401 80.633,172.215 80.047 C 172.056 79.545,172.120 79.200,172.373 79.200 C 172.608 79.200,172.800 79.020,172.800 78.800 C 172.800 78.580,172.452 78.400,172.027 78.400 C 171.426 78.400,171.280 78.640,171.370 79.481 M299.388 80.020 C 299.007 80.635,299.528 81.032,300.042 80.518 C 300.329 80.231,300.336 80.007,300.062 79.839 C 299.839 79.700,299.535 79.782,299.388 80.020 M103.017 80.372 C 102.744 80.814,103.375 81.292,103.744 80.922 C 104.125 80.542,104.054 80.000,103.624 80.000 C 103.417 80.000,103.144 80.168,103.017 80.372 M112.705 81.483 C 113.202 81.579,113.922 81.575,114.305 81.475 C 114.687 81.375,114.280 81.296,113.400 81.301 C 112.520 81.305,112.207 81.387,112.705 81.483 M170.538 82.187 C 170.792 82.730,171.062 82.994,171.138 82.774 C 171.334 82.205,170.895 81.200,170.450 81.200 C 170.241 81.200,170.279 81.635,170.538 82.187 M294.901 81.700 C 295.261 81.975,295.626 82.830,295.714 83.600 C 295.867 84.958,295.874 84.950,295.936 83.343 C 295.982 82.158,295.819 81.616,295.367 81.443 C 294.369 81.060,294.191 81.157,294.901 81.700 M174.800 82.951 C 174.800 84.174,175.880 85.178,176.226 84.276 C 176.493 83.580,175.771 82.000,175.186 82.000 C 174.974 82.000,174.800 82.428,174.800 82.951 M177.644 82.947 C 177.287 83.377,177.280 83.602,177.615 83.810 C 178.268 84.213,179.077 83.317,178.543 82.783 C 178.254 82.494,177.978 82.544,177.644 82.947 M300.270 82.663 C 300.125 82.808,300.229 83.194,300.500 83.521 C 300.915 84.020,300.866 84.075,300.197 83.863 C 299.307 83.582,298.733 88.864,299.595 89.397 C 299.818 89.535,300.000 89.277,300.000 88.824 C 300.000 88.371,300.180 88.000,300.400 88.000 C 300.620 88.000,300.800 88.180,300.800 88.400 C 300.800 90.111,301.554 88.216,301.778 85.942 C 302.072 82.956,301.412 81.521,300.270 82.663 M300.800 86.000 C 300.800 86.660,300.620 87.200,300.400 87.200 C 300.180 87.200,300.000 86.660,300.000 86.000 C 300.000 85.340,300.180 84.800,300.400 84.800 C 300.620 84.800,300.800 85.340,300.800 86.000 M170.901 86.600 C 170.905 87.480,170.987 87.793,171.083 87.295 C 171.179 86.798,171.175 86.078,171.075 85.695 C 170.975 85.313,170.896 85.720,170.901 86.600 M175.081 86.653 C 174.639 87.094,175.599 88.400,176.365 88.400 C 177.463 88.400,178.321 87.248,177.574 86.776 C 176.910 86.355,175.450 86.283,175.081 86.653 M102.400 88.576 C 102.400 89.139,102.580 89.600,102.800 89.600 C 103.020 89.600,103.200 89.251,103.200 88.824 C 103.200 88.397,103.020 87.936,102.800 87.800 C 102.573 87.660,102.400 87.996,102.400 88.576 M219.732 115.434 C 218.841 117.754,220.389 123.603,221.500 122.116 C 222.367 120.956,222.159 115.713,221.226 115.214 C 220.195 114.662,220.018 114.688,219.732 115.434 M175.884 116.000 C 175.591 117.120,175.990 118.400,176.633 118.400 C 177.285 118.400,178.000 117.159,178.000 116.026 C 178.000 114.890,176.180 114.867,175.884 116.000 M225.600 115.600 C 225.600 115.820,225.949 116.000,226.376 116.000 C 226.803 116.000,227.264 115.820,227.400 115.600 C 227.540 115.373,227.204 115.200,226.624 115.200 C 226.061 115.200,225.600 115.380,225.600 115.600 M226.267 117.067 C 226.120 117.213,226.000 117.767,226.000 118.296 C 226.000 119.693,227.360 119.337,227.527 117.897 C 227.648 116.847,226.947 116.386,226.267 117.067 M176.000 120.771 C 176.000 121.343,176.257 121.600,176.829 121.600 C 177.854 121.600,177.738 120.276,176.695 120.075 C 176.215 119.983,176.000 120.198,176.000 120.771 M170.481 121.218 C 170.172 121.713,170.146 122.000,170.409 122.000 C 170.638 122.000,170.932 121.722,171.062 121.383 C 171.422 120.445,171.033 120.334,170.481 121.218 M152.720 123.280 C 153.093 123.653,153.307 123.653,153.680 123.280 C 154.053 122.907,153.947 122.800,153.200 122.800 C 152.453 122.800,152.347 122.907,152.720 123.280 M166.267 123.067 C 165.828 123.506,165.952 123.831,166.981 124.942 C 167.957 125.994,169.200 126.363,169.200 125.600 C 169.200 125.380,168.969 125.200,168.688 125.200 C 168.406 125.200,167.972 124.660,167.722 124.000 C 167.281 122.830,166.807 122.526,166.267 123.067 M175.858 123.792 C 175.690 124.231,175.946 124.551,176.692 124.835 C 178.137 125.384,179.691 124.973,179.523 124.086 C 179.342 123.130,176.209 122.879,175.858 123.792 M149.089 123.844 C 148.665 124.268,148.736 126.713,149.180 126.988 C 149.544 127.213,150.400 126.031,150.400 125.303 C 150.400 124.676,149.386 123.548,149.089 123.844 M152.466 125.624 C 152.540 126.126,152.840 126.616,153.134 126.713 C 153.496 126.833,153.624 126.596,153.534 125.976 C 153.460 125.474,153.160 124.984,152.866 124.887 C 152.504 124.767,152.376 125.004,152.466 125.624 M167.870 268.682 C 167.176 268.861,167.174 268.909,167.832 269.635 C 168.685 270.578,170.225 270.632,170.571 269.732 C 170.985 268.652,169.787 268.186,167.870 268.682 M146.643 270.633 C 146.275 271.591,146.287 271.600,147.976 271.600 C 149.783 271.600,150.387 271.035,149.237 270.420 C 148.096 269.809,146.922 269.905,146.643 270.633 M175.100 270.432 C 173.481 271.375,175.114 272.903,176.785 272.008 C 177.756 271.488,177.850 270.582,176.967 270.243 C 176.140 269.925,175.935 269.946,175.100 270.432 M151.894 270.639 C 151.447 271.087,152.083 272.000,152.843 272.000 C 153.333 272.000,153.600 271.718,153.600 271.200 C 153.600 270.437,152.468 270.065,151.894 270.639 M169.334 272.627 C 168.951 273.627,169.770 274.151,170.829 273.584 C 171.711 273.113,171.717 273.075,170.996 272.547 C 170.025 271.838,169.630 271.857,169.334 272.627 M217.600 276.000 C 217.600 278.411,217.832 278.808,218.720 277.920 C 219.592 277.048,219.337 273.600,218.400 273.600 C 217.689 273.600,217.600 273.867,217.600 276.000 M177.200 275.351 C 177.200 276.089,178.260 276.933,178.782 276.611 C 179.409 276.224,179.285 275.318,178.567 275.043 C 177.584 274.665,177.200 274.752,177.200 275.351 M226.656 275.078 C 226.205 275.528,226.381 276.000,227.000 276.000 C 227.330 276.000,227.600 275.831,227.600 275.624 C 227.600 275.119,226.975 274.758,226.656 275.078 M147.023 275.975 C 146.036 277.065,146.559 277.600,148.610 277.600 C 149.914 277.600,150.475 277.408,150.767 276.861 C 151.636 275.239,148.385 274.469,147.023 275.975 M166.214 275.578 C 166.070 275.810,166.253 276.000,166.619 276.000 C 167.030 276.000,167.202 276.217,167.068 276.567 C 166.948 276.879,167.103 277.231,167.412 277.349 C 168.045 277.592,168.533 277.067,168.089 276.622 C 167.930 276.463,167.800 276.126,167.800 275.872 C 167.800 275.267,166.549 275.035,166.214 275.578 M224.800 277.751 C 224.800 278.274,224.530 278.926,224.200 279.200 C 223.405 279.860,223.443 280.243,224.400 281.200 C 225.482 282.282,225.600 282.223,225.600 280.600 C 225.600 279.830,225.780 279.200,226.000 279.200 C 226.220 279.200,226.400 279.740,226.400 280.400 C 226.400 281.060,226.580 281.600,226.800 281.600 C 227.439 281.600,227.262 278.867,226.554 277.786 C 225.729 276.527,224.800 276.508,224.800 277.751 M170.281 278.963 C 170.677 279.493,171.062 279.757,171.138 279.550 C 171.304 279.096,170.451 278.000,169.932 278.000 C 169.729 278.000,169.886 278.433,170.281 278.963 M229.369 278.983 C 229.233 279.523,229.215 280.198,229.329 280.483 C 229.443 280.767,229.551 280.605,229.568 280.123 C 229.586 279.640,230.000 278.965,230.489 278.623 L 231.378 278.000 230.497 278.000 C 229.894 278.000,229.537 278.311,229.369 278.983 M177.600 279.200 C 177.600 279.733,177.867 280.000,178.400 280.000 C 178.933 280.000,179.200 279.733,179.200 279.200 C 179.200 278.667,178.933 278.400,178.400 278.400 C 177.867 278.400,177.600 278.667,177.600 279.200 M172.706 280.179 C 172.374 281.917,174.004 282.687,174.814 281.174 C 175.142 280.562,175.133 280.201,174.779 279.774 C 174.022 278.863,172.916 279.079,172.706 280.179 M223.354 307.375 C 223.039 308.196,223.483 309.319,223.997 309.002 C 224.219 308.865,224.400 308.414,224.400 308.000 C 224.400 307.015,223.662 306.573,223.354 307.375 M306.000 307.200 C 305.527 307.492,305.508 307.668,305.903 308.063 C 306.290 308.450,306.507 308.453,306.880 308.080 C 307.186 307.774,307.221 307.461,306.977 307.217 C 306.741 306.981,306.364 306.975,306.000 307.200 M299.200 309.010 C 299.200 309.345,298.750 309.791,298.200 310.000 C 297.011 310.452,296.859 311.600,297.989 311.600 C 298.538 311.600,298.886 311.994,299.136 312.900 L 299.496 314.200 299.977 313.000 C 300.498 311.702,300.210 308.400,299.575 308.400 C 299.369 308.400,299.200 308.674,299.200 309.010 M172.670 309.361 C 172.375 310.131,172.735 310.400,174.067 310.400 C 175.283 310.400,175.488 310.048,174.720 309.280 C 174.069 308.629,172.934 308.674,172.670 309.361 M102.247 310.325 C 101.720 311.176,102.583 312.543,103.187 311.815 C 103.649 311.259,103.638 311.066,103.113 310.542 C 102.733 310.162,102.399 310.078,102.247 310.325 M178.016 311.380 C 177.332 312.205,177.654 314.165,178.500 314.326 C 179.072 314.434,179.200 314.166,179.200 312.853 C 179.200 311.077,178.742 310.506,178.016 311.380 M170.901 313.400 C 170.905 314.280,170.987 314.593,171.083 314.095 C 171.179 313.598,171.175 312.878,171.075 312.495 C 170.975 312.113,170.896 312.520,170.901 313.400 M172.400 315.167 C 172.400 315.369,172.300 315.796,172.177 316.115 C 171.877 316.898,173.366 317.259,174.246 316.616 C 175.190 315.925,174.674 314.800,173.413 314.800 C 172.856 314.800,172.400 314.965,172.400 315.167 M303.354 315.375 C 303.039 316.196,303.483 317.319,303.997 317.002 C 304.219 316.865,304.400 316.414,304.400 316.000 C 304.400 315.015,303.662 314.573,303.354 315.375 M224.000 316.000 C 224.000 316.747,224.107 316.853,224.480 316.480 C 224.853 316.107,224.853 315.893,224.480 315.520 C 224.107 315.147,224.000 315.253,224.000 316.000 M295.552 316.700 C 295.407 318.127,295.493 318.400,296.089 318.400 C 296.863 318.400,297.045 319.001,296.393 319.404 C 296.170 319.542,296.091 319.823,296.217 320.028 C 296.601 320.649,297.935 320.445,298.355 319.700 C 298.672 319.139,298.851 319.100,299.255 319.500 C 299.808 320.048,300.802 320.177,300.797 319.700 C 300.792 319.165,298.176 317.600,297.287 317.600 C 296.650 317.600,296.331 317.258,296.074 316.300 L 295.725 315.000 295.552 316.700 M102.239 315.938 C 102.100 316.161,102.182 316.465,102.420 316.612 C 103.035 316.993,103.432 316.472,102.918 315.958 C 102.631 315.671,102.407 315.664,102.239 315.938 M227.200 317.424 C 227.200 318.004,227.373 318.340,227.600 318.200 C 227.820 318.064,228.000 317.603,228.000 317.176 C 228.000 316.749,227.820 316.400,227.600 316.400 C 227.380 316.400,227.200 316.861,227.200 317.424 M170.536 317.825 C 170.054 318.846,170.229 319.023,171.147 318.442 C 171.506 318.214,171.574 317.883,171.344 317.472 C 171.052 316.950,170.922 317.006,170.536 317.825 M229.212 317.200 C 229.212 317.890,229.880 319.070,230.111 318.788 C 230.196 318.685,230.029 318.150,229.739 317.600 C 229.448 317.049,229.212 316.869,229.212 317.200 M172.006 317.900 C 172.024 318.777,172.788 319.359,172.794 318.500 C 172.797 318.005,172.620 317.600,172.400 317.600 C 172.180 317.600,172.003 317.735,172.006 317.900 M177.244 318.947 C 176.899 319.362,176.931 319.611,177.376 319.980 C 178.233 320.692,179.381 320.327,179.528 319.296 C 179.677 318.248,178.033 317.997,177.244 318.947 M224.655 319.000 C 224.782 319.330,225.046 319.600,225.243 319.600 C 225.439 319.600,225.600 319.330,225.600 319.000 C 225.600 318.670,225.336 318.400,225.013 318.400 C 224.655 318.400,224.515 318.635,224.655 319.000 M108.000 319.800 C 108.000 320.167,108.194 320.402,108.430 320.323 C 108.666 320.245,108.860 320.009,108.860 319.800 C 108.860 319.591,108.666 319.356,108.430 319.277 C 108.194 319.198,108.000 319.433,108.000 319.800 " stroke="none" fill="#04b4fb" fill-rule="evenodd"></path><path id="path4" d="M106.000 80.200 L 106.000 81.600 109.000 81.600 C 110.733 81.600,112.000 81.431,112.000 81.200 C 112.000 80.978,110.933 80.800,109.600 80.800 C 107.307 80.800,107.200 80.756,107.200 79.800 C 107.200 79.178,106.973 78.800,106.600 78.800 C 106.181 78.800,106.000 79.222,106.000 80.200 M294.613 80.379 C 294.434 80.668,284.324 80.800,262.353 80.800 C 240.782 80.800,230.435 80.932,230.604 81.206 C 231.089 81.991,296.079 81.705,295.927 80.920 C 295.773 80.127,294.972 79.798,294.613 80.379 M141.500 80.700 C 124.165 80.769,114.800 80.945,114.800 81.203 C 114.800 81.462,124.398 81.600,142.400 81.600 C 158.329 81.600,170.000 81.449,170.000 81.243 C 170.000 80.863,168.915 80.335,168.467 80.497 C 168.320 80.551,156.185 80.642,141.500 80.700 M228.759 82.300 C 228.298 83.505,228.090 119.423,228.541 119.875 C 228.684 120.017,228.800 120.463,228.800 120.867 C 228.800 121.270,228.972 121.600,229.182 121.600 C 229.419 121.600,229.567 113.950,229.574 101.400 C 229.579 90.290,229.493 81.200,229.382 81.200 C 229.271 81.200,228.991 81.695,228.759 82.300 M295.858 84.110 C 295.498 87.111,295.596 314.846,295.958 315.771 C 296.245 316.502,296.274 316.505,296.539 315.815 C 296.935 314.784,296.833 82.467,296.436 82.222 C 296.256 82.111,295.996 82.961,295.858 84.110 M103.976 82.500 C 103.796 83.263,103.573 86.035,103.630 86.800 C 104.106 93.218,103.887 316.262,103.404 316.796 C 102.819 317.443,103.943 318.724,104.557 318.110 C 104.993 317.674,104.837 82.400,104.400 82.400 C 104.180 82.400,103.989 82.445,103.976 82.500 M171.047 83.100 C 170.736 84.149,170.847 120.084,171.164 120.939 C 171.890 122.899,172.369 120.579,171.982 116.979 C 171.500 112.498,171.559 86.159,172.054 84.857 C 172.443 83.835,172.178 82.400,171.600 82.400 C 171.410 82.400,171.161 82.715,171.047 83.100 M144.800 123.200 C 144.800 124.080,144.980 124.800,145.200 124.800 C 145.420 124.800,145.600 124.476,145.600 124.080 C 145.600 122.468,146.113 122.400,158.280 122.400 C 165.827 122.400,170.000 122.258,170.000 122.000 C 170.000 121.742,165.533 121.600,157.400 121.600 L 144.800 121.600 144.800 123.200 M230.204 121.994 C 230.046 122.249,234.383 122.426,242.480 122.494 L 255.000 122.600 255.000 200.200 L 255.000 277.800 243.000 278.009 L 231.000 278.218 243.500 278.309 L 256.000 278.400 256.000 200.000 L 256.000 121.600 243.224 121.600 C 235.261 121.600,230.355 121.749,230.204 121.994 M144.800 202.206 L 144.800 278.411 157.200 278.306 C 165.137 278.238,169.598 278.056,169.593 277.800 C 169.588 277.579,168.825 277.451,167.892 277.513 C 166.962 277.575,164.675 277.730,162.812 277.858 C 160.949 277.985,156.512 277.961,152.952 277.804 L 146.481 277.518 146.019 275.859 C 145.765 274.947,145.603 273.480,145.659 272.600 C 145.990 267.373,145.548 126.000,145.200 126.000 C 144.935 126.000,144.800 151.669,144.800 202.206 M228.442 279.149 C 228.150 279.679,228.022 280.610,228.152 281.259 C 228.279 281.897,228.399 289.750,228.418 298.710 C 228.453 314.890,228.566 317.392,229.246 316.972 C 229.671 316.709,229.683 282.101,229.259 279.800 C 228.969 278.228,228.954 278.217,228.442 279.149 M171.010 279.900 C 170.716 281.072,170.778 315.718,171.077 316.900 C 171.694 319.342,171.829 315.634,171.681 300.264 C 171.532 284.827,171.585 282.790,172.164 281.670 C 172.700 280.634,172.726 280.270,172.311 279.606 C 171.635 278.524,171.339 278.590,171.010 279.900 M228.800 318.429 C 228.800 319.122,229.916 320.060,230.198 319.603 C 230.531 319.064,294.256 319.044,294.589 319.583 C 294.920 320.118,296.000 319.634,296.000 318.950 C 296.000 318.469,291.153 318.402,262.800 318.493 C 244.540 318.552,229.600 318.465,229.600 318.300 C 229.600 318.135,229.420 318.000,229.200 318.000 C 228.980 318.000,228.800 318.193,228.800 318.429 M105.600 319.028 C 105.600 319.445,105.892 319.613,106.469 319.528 C 107.749 319.339,107.886 318.400,106.633 318.400 C 105.961 318.400,105.600 318.619,105.600 319.028 M109.600 318.800 C 109.600 319.063,119.333 319.200,138.000 319.200 C 156.667 319.200,166.400 319.063,166.400 318.800 C 166.400 318.537,156.667 318.400,138.000 318.400 C 119.333 318.400,109.600 318.537,109.600 318.800 M167.200 318.800 C 167.200 319.020,167.830 319.200,168.600 319.200 C 169.370 319.200,170.000 319.020,170.000 318.800 C 170.000 318.580,169.370 318.400,168.600 318.400 C 167.830 318.400,167.200 318.580,167.200 318.800 " stroke="none" fill="#1ca4e4" fill-rule="evenodd"></path></g></svg>