<?xml version="1.0" encoding="UTF-8"?> <svg xmlns="http://www.w3.org/2000/svg" id="Layer_1" data-name="Layer 1" viewBox="0 0 30 30"><path d="M29,.5,30,1V14c0,5.55-2.89,8.7-6,10.1h0l-7.62,4.39-.18.1-.08.05h0A10.74,10.74,0,0,1,11,30C6,30,0,26,0,18V6L2,7V18c0,8,6,10,9,10a9.19,9.19,0,0,0,6.89-3.25C14.18,23.87,10,20.68,10,14V2.2L2,7,0,6,10,0l1,.5L12,1V14c0,6.94,4.52,8.61,7,8.93A11.55,11.55,0,0,0,20,18V5l2,1V18a13.31,13.31,0,0,1-.88,4.91C23.65,22.55,28,20.81,28,14V2.25L22,6,20,5l8-5Z" style="fill:#02b3e4;fill-rule:evenodd"></path></svg> 